# xmcd
#
# Track frame offsets:
#	150
#	19393
#	32033
#	49906
#	69295
#	92211
#	103859
#	117916
#	143170
#	162305
#	181726
#	199941
#	209571
#	247131
#	274207
#	288323
#	313297
#
# Disc length: 4408 seconds
#
# Revision: 0
# Processed by: cddbd v1.5.2PL0 Copyright (c) Steve Scherf et al.
# Submitted via: EasyCDDAExtractor 9.0.0.1
#
DISCID=0b113611
DTITLE=Motörhead - Voorst Nationaal Brussels 27-10-05 Disc 1
DYEAR=2005
DGENRE=Hard Rock
TTITLE0=Dr Rock
TTITLE1=Stay Clean
TTITLE2=Love Me Like A Reptile
TTITLE3=Killers
TTITLE4=Metropolis
TTITLE5=Over The Top
TTITLE6=No Class
TTITLE7=I Got Mine
TTITLE8=In The Name Of Tragedy
TTITLE9=Dancing On Your Grave
TTITLE10=Fast and Loose
TTITLE11=RAMONES
TTITLE12=Sacrifice
TTITLE13=Just Coz You Got The Power
TTITLE14=Going To BraZil
TTITLE15=Killed By Death
TTITLE16=Iron Fist
EXTD=
EXTT0=
EXTT1=
EXTT2=
EXTT3=
EXTT4=
EXTT5=
EXTT6=
EXTT7=
EXTT8=
EXTT9=
EXTT10=
EXTT11=
EXTT12=
EXTT13=
EXTT14=
EXTT15=
EXTT16=
PLAYORDER=
